<svg width="35" height="36" viewBox="0 0 35 36" fill="none" xmlns="http://www.w3.org/2000/svg">
<path d="M17.0454 3.79492C15.18 3.79492 13.3329 4.16233 11.6095 4.87618C9.88615 5.59002 8.32025 6.63632 7.00124 7.95534C4.33737 10.6192 2.84082 14.2322 2.84082 17.9995C2.84082 24.2779 6.91753 29.6046 12.5567 31.4938C13.267 31.6074 13.4942 31.1671 13.4942 30.7836V28.383C9.55957 29.2353 8.7215 26.4796 8.7215 26.4796C8.06809 24.8319 7.1448 24.3915 7.1448 24.3915C5.85218 23.5108 7.24423 23.5392 7.24423 23.5392C8.66468 23.6387 9.41753 25.0023 9.41753 25.0023C10.6533 27.1614 12.7414 26.5222 13.551 26.1813C13.6789 25.258 14.0482 24.633 14.4459 24.2779C11.2925 23.9228 7.98287 22.7012 7.98287 17.2892C7.98287 15.7125 8.52264 14.4483 9.44593 13.4398C9.30389 13.0847 8.80673 11.6074 9.58798 9.68981C9.58798 9.68981 10.7812 9.30629 13.4942 11.1387C14.6164 10.8262 15.838 10.6699 17.0454 10.6699C18.2528 10.6699 19.4743 10.8262 20.5965 11.1387C23.3096 9.30629 24.5028 9.68981 24.5028 9.68981C25.284 11.6074 24.7868 13.0847 24.6448 13.4398C25.5681 14.4483 26.1079 15.7125 26.1079 17.2892C26.1079 22.7154 22.784 23.9086 19.6164 24.2637C20.1278 24.704 20.5965 25.5705 20.5965 26.8915V30.7836C20.5965 31.1671 20.8238 31.6216 21.5482 31.4938C27.1874 29.5904 31.2499 24.2779 31.2499 17.9995C31.2499 16.1341 30.8825 14.287 30.1687 12.5636C29.4548 10.8402 28.4085 9.27435 27.0895 7.95534C25.7705 6.63632 24.2046 5.59002 22.4812 4.87618C20.7578 4.16233 18.9107 3.79492 17.0454 3.79492Z" fill="white"/>
</svg>
