<svg width="28" height="22" viewBox="0 0 28 22" fill="none" xmlns="http://www.w3.org/2000/svg">
<path d="M6.36366 21.8923V10.6176L3.00858 7.41872L0 5.64355V19.9026C0 21.0035 0.855859 21.8923 1.90914 21.8923H6.36366Z" fill="#4285F4"/>
<path d="M21.6367 21.8922H26.0912C27.1477 21.8922 28.0004 21.0001 28.0004 19.9025V5.64355L24.5927 7.67679L21.6367 10.6175V21.8922Z" fill="#34A853"/>
<path d="M6.36376 10.6168L5.90723 6.21148L6.36376 1.99512L14.0001 7.96407L21.6364 1.99512L22.1471 5.98384L21.6364 10.6168L14.0001 16.5858L6.36376 10.6168Z" fill="#EA4335"/>
<path d="M21.6367 1.99524V10.617L28.0004 5.64291V2.99003C28.0004 0.529561 25.3054 -0.873082 23.4187 0.602514L21.6367 1.99524Z" fill="#FBBC04"/>
<path d="M0 5.64296L2.92677 7.93073L6.36366 10.617V1.99529L4.58172 0.602566C2.69172 -0.873144 0 0.529613 0 2.98996V5.64296Z" fill="#C5221F"/>
</svg>
