<svg width="246" height="20" viewBox="0 0 246 20" fill="none" xmlns="http://www.w3.org/2000/svg">
<g clip-path="url(#clip0_390_299)">
<path d="M24.9388 14.666V19.666H10.6885V7.36411L0 0.333984H10.6885H12.5891V14.6693H24.9388V14.666Z" fill="#F08314"/>
<path fill-rule="evenodd" clip-rule="evenodd" d="M46.7947 0.333984H42.7539V19.6693H57.0042V15.8284H46.7947V0.333984Z" fill="white"/>
<path fill-rule="evenodd" clip-rule="evenodd" d="M88.0186 19.6693H102.272V15.8841H92.0065V11.8926H101.084V8.1074H92.0065V4.11591H102.272V0.333984H88.0186V19.6693Z" fill="white"/>
<path fill-rule="evenodd" clip-rule="evenodd" d="M110.222 0.333984H106.182V19.666H120.435V15.8284H110.222V0.333984Z" fill="white"/>
<path fill-rule="evenodd" clip-rule="evenodd" d="M148.382 2.91421C147.511 2.0203 146.475 1.30976 145.28 0.785855C144.083 0.261952 142.773 0 141.348 0C139.924 0 138.608 0.261952 137.401 0.785855C136.197 1.30976 135.158 2.03012 134.287 2.94041C133.416 3.85069 132.735 4.91159 132.24 6.11657C131.749 7.32155 131.503 8.61821 131.503 9.99673V10.0524C131.503 11.4342 131.746 12.7276 132.228 13.9325C132.71 15.1375 133.388 16.1886 134.259 17.0825C135.13 17.9764 136.163 18.6837 137.36 19.2109C138.558 19.7348 139.868 19.9967 141.292 19.9967C142.717 19.9967 144.033 19.7348 145.237 19.2109C146.444 18.687 147.48 17.9666 148.351 17.0563C149.222 16.146 149.903 15.0851 150.398 13.8802C150.889 12.6752 151.138 11.3785 151.138 10V9.94434C151.138 8.56254 150.895 7.26916 150.413 6.06418C149.928 4.8592 149.253 3.80812 148.382 2.91421ZM146.97 10.0557C146.97 10.8972 146.83 11.6863 146.556 12.4231C146.279 13.1598 145.896 13.8081 145.405 14.368C144.913 14.928 144.322 15.3667 143.625 15.6843C142.929 16.002 142.17 16.1591 141.352 16.1591C140.533 16.1591 139.749 15.9954 139.062 15.668C138.375 15.3405 137.777 14.8985 137.27 14.3386C136.76 13.7787 136.368 13.1238 136.091 12.3772C135.814 11.6306 135.678 10.835 135.678 9.99673V9.94106C135.678 9.09954 135.814 8.31041 136.091 7.57367C136.368 6.83694 136.751 6.18861 137.242 5.62868C137.734 5.06876 138.322 4.62999 139.009 4.31238C139.697 3.99476 140.459 3.83432 141.299 3.83432C142.139 3.83432 142.879 3.99804 143.573 4.32547C144.269 4.64964 144.87 5.09496 145.38 5.65488C145.89 6.2148 146.282 6.86968 146.559 7.61624C146.836 8.3628 146.973 9.15848 146.973 9.99673V10.0524L146.97 10.0557Z" fill="white"/>
<path d="M128.296 0.333984H124.255V19.6693H128.296V0.333984Z" fill="white"/>
<path fill-rule="evenodd" clip-rule="evenodd" d="M85.1286 0.333984H80.2479L72.7977 8.6313V0.333984H68.7568V19.6693H72.7977V13.7557L74.9223 11.4375L80.615 19.6693H85.4708L77.6504 8.53634L85.1286 0.333984Z" fill="white"/>
<path fill-rule="evenodd" clip-rule="evenodd" d="M166.972 12.41L158.392 0.543546L158.243 0.333984H154.352V1.80419V19.666H158.392V7.3903L166.972 19.2469L167.277 19.666H169.075H171.013V0.333984H166.972V12.41Z" fill="white"/>
<path d="M64.8651 0.333984H60.8242V19.6693H64.8651V0.333984Z" fill="white"/>
<path fill-rule="evenodd" clip-rule="evenodd" d="M24.9385 7.36411L35.627 0.333984H24.9385V7.36411Z" fill="white"/>
<path fill-rule="evenodd" clip-rule="evenodd" d="M191.945 11.0379C192.042 12.4 191.684 13.7556 190.934 14.8722C190.564 15.288 190.11 15.6089 189.606 15.8152C189.102 16.0215 188.561 16.1066 188.023 16.0673H187.861C185.232 16.0673 183.935 14.4269 183.935 11.0444V0.314224H179.564V11.2081C179.564 14.0077 180.292 16.1918 181.748 17.7013C183.204 19.2108 185.229 19.9999 187.823 19.9999H187.991C190.583 19.9999 192.63 19.2337 194.073 17.7013C195.516 16.1688 196.257 14.0143 196.257 11.2081V0.297852H191.967L191.945 11.0379Z" fill="white"/>
<path fill-rule="evenodd" clip-rule="evenodd" d="M211.275 12.0824L202.755 0.297852H198.9V19.44H203.016V7.26904L211.822 19.44H215.397V0.297852H211.275V12.0824Z" fill="white"/>
<path d="M222.154 0.297852H218.156V19.44H222.154V0.297852Z" fill="white"/>
<path fill-rule="evenodd" clip-rule="evenodd" d="M239.86 0.314453H239.794L234.254 13.8082L228.798 0.314453H228.726H224.182L232.024 19.4402H236.177L244.041 0.314453H239.86Z" fill="white"/>
<path fill-rule="evenodd" clip-rule="evenodd" d="M245.841 16.7191C245.735 16.4474 245.58 16.2051 245.384 15.9955C245.188 15.7892 244.955 15.6255 244.696 15.5142C244.441 15.4028 244.164 15.3472 243.888 15.3472C243.471 15.3472 243.063 15.4781 242.715 15.7204C242.366 15.966 242.096 16.3131 241.937 16.7191C241.775 17.1252 241.735 17.5738 241.816 18.0027C241.897 18.4349 242.099 18.8311 242.394 19.1422C242.69 19.4533 243.066 19.6661 243.477 19.7512C243.888 19.8364 244.311 19.7938 244.696 19.6235C245.082 19.4565 245.412 19.1717 245.645 18.8049C245.878 18.4382 246 18.0093 246 17.5705C246 17.2791 245.947 16.9876 245.841 16.7191Z" fill="white"/>
<path fill-rule="evenodd" clip-rule="evenodd" d="M46.7947 0.333984H42.7539V19.6693H57.0042V15.8284H46.7947V0.333984Z" fill="white"/>
</g>
<defs>
<clipPath id="clip0_390_299">
<rect width="246" height="20" fill="white"/>
</clipPath>
</defs>
</svg>
