<svg width="35" height="36" viewBox="0 0 35 36" fill="none" xmlns="http://www.w3.org/2000/svg">
<path d="M3.55078 17.9992C3.55078 11.6384 3.55078 8.45659 5.52663 6.48073C7.50249 4.50488 10.6829 4.50488 17.0451 4.50488C23.4059 4.50488 26.5877 4.50488 28.5636 6.48073C30.5394 8.45659 30.5394 11.637 30.5394 17.9992C30.5394 24.36 30.5394 27.5418 28.5636 29.5177C26.5877 31.4935 23.4073 31.4935 17.0451 31.4935C10.6843 31.4935 7.50249 31.4935 5.52663 29.5177C3.55078 27.5418 3.55078 24.3614 3.55078 17.9992Z" stroke="white" stroke-width="2.625" stroke-linecap="round" stroke-linejoin="round"/>
<path d="M24.8692 10.1865H24.855M23.4374 17.999C23.4374 19.6943 22.764 21.3201 21.5652 22.5189C20.3665 23.7176 18.7406 24.3911 17.0454 24.3911C15.3501 24.3911 13.7242 23.7176 12.5255 22.5189C11.3268 21.3201 10.6533 19.6943 10.6533 17.999C10.6533 16.3037 11.3268 14.6779 12.5255 13.4792C13.7242 12.2804 15.3501 11.607 17.0454 11.607C18.7406 11.607 20.3665 12.2804 21.5652 13.4792C22.764 14.6779 23.4374 16.3037 23.4374 17.999Z" stroke="white" stroke-width="2.625" stroke-linecap="round" stroke-linejoin="round"/>
</svg>
