<svg width="29" height="29" viewBox="0 0 29 29" fill="none" xmlns="http://www.w3.org/2000/svg">
<rect x="0.693359" y="0.836914" width="27.3864" height="27.3864" rx="5.47729" fill="black"/>
<g clip-path="url(#clip0_482_763)">
<path d="M13.9152 19.7281H8.22461V15.345C8.22461 13.7319 8.56036 12.4577 9.23187 11.5247C9.90338 10.5928 11.0548 9.76846 12.6863 9.05283L13.9163 11.3816C12.9133 11.8529 12.2203 12.3211 11.8361 12.7881C11.4519 13.2551 11.2389 13.8061 11.1947 14.4432H13.9163V19.7292L13.9152 19.7281ZM20.5485 19.7281H14.8579V15.345C14.8579 13.7319 15.1937 12.4577 15.8652 11.5247C16.5367 10.5917 17.6881 9.76739 19.3185 9.05176L20.5485 11.3805C19.5455 11.8519 18.8525 12.32 18.4683 12.787C18.0842 13.2541 17.8711 13.805 17.827 14.4421H20.5485V19.7281Z" fill="white"/>
</g>
<defs>
<clipPath id="clip0_482_763">
<rect width="12.3239" height="10.6753" fill="white" transform="translate(8.22461 9.05273)"/>
</clipPath>
</defs>
</svg>
