<svg width="7" height="13" viewBox="0 0 7 13" fill="none" xmlns="http://www.w3.org/2000/svg">
<path d="M0.333541 1.09661C0.238335 1.19162 0.162802 1.30448 0.111266 1.42872C0.0597305 1.55296 0.0332031 1.68614 0.0332031 1.82064C0.0332031 1.95515 0.0597305 2.08833 0.111266 2.21257C0.162802 2.33681 0.238335 2.44966 0.333541 2.54467L4.31827 6.5294L0.333541 10.5141C0.141516 10.7061 0.033638 10.9666 0.033638 11.2382C0.033638 11.5097 0.141516 11.7702 0.333541 11.9622C0.525565 12.1542 0.786006 12.2621 1.05757 12.2621C1.32913 12.2621 1.58957 12.1542 1.7816 11.9622L6.49549 7.24829C6.59069 7.15328 6.66623 7.04043 6.71776 6.91619C6.7693 6.79195 6.79583 6.65877 6.79583 6.52426C6.79583 6.38976 6.7693 6.25658 6.71776 6.13234C6.66623 6.0081 6.59069 5.89524 6.49549 5.80023L1.7816 1.08634C1.39134 0.696086 0.734067 0.696087 0.333541 1.09661Z" fill="#9E9E9E"/>
</svg>
